<svg width="32" height="32" viewBox="0 0 32 32" fill="none" xmlns="http://www.w3.org/2000/svg">
<g id="downArrow">
<path id="Vector" d="M24.9465 10.9466C24.8225 10.8217 24.675 10.7225 24.5126 10.6548C24.3501 10.5871 24.1758 10.5522 23.9998 10.5522C23.8238 10.5522 23.6496 10.5871 23.487 10.6548C23.3245 10.7225 23.177 10.8217 23.0532 10.9466L16.9465 17.0533C16.8225 17.1783 16.675 17.2775 16.5126 17.3452C16.3501 17.4128 16.1758 17.4477 15.9998 17.4477C15.8238 17.4477 15.6496 17.4128 15.487 17.3452C15.3245 17.2775 15.177 17.1783 15.0532 17.0533L8.94647 10.9466C8.82251 10.8217 8.67504 10.7225 8.51256 10.6548C8.35008 10.5871 8.17582 10.5522 7.9998 10.5522C7.82379 10.5522 7.64951 10.5871 7.48703 10.6548C7.32455 10.7225 7.17708 10.8217 7.05314 10.9466C6.8048 11.1965 6.66541 11.5344 6.66541 11.8866C6.66541 12.2389 6.8048 12.5768 7.05314 12.8266L13.1731 18.9467C13.9232 19.6957 14.9398 20.1164 15.9998 20.1164C17.0598 20.1164 18.0765 19.6957 18.8265 18.9467L24.9465 12.8266C25.1948 12.5768 25.3342 12.2389 25.3342 11.8866C25.3342 11.5344 25.1948 11.1965 24.9465 10.9466Z" fill="#5B8B5A"/>
</g>
</svg>
